<?xml version="1.0" standalone="no"?>
<!DOCTYPE svg PUBLIC "-//W3C//DTD SVG 1.1//EN" "http://www.w3.org/Graphics/SVG/1.1/DTD/svg11.dtd" >
<!--
2013-9-30: Created.
-->
<svg>
<metadata>
Created by iconfont
</metadata>
<defs>

<font id="iconfont" horiz-adv-x="1024" >
  <font-face
    font-family="iconfont"
    font-weight="500"
    font-stretch="normal"
    units-per-em="1024"
    ascent="896"
    descent="-128"
  />
    <missing-glyph />
    
    <glyph glyph-name="x" unicode="x" horiz-adv-x="1001"
d="M281 543q-27 -1 -53 -1h-83q-18 0 -36.5 -6t-32.5 -18.5t-23 -32t-9 -45.5v-76h912v41q0 16 -0.5 30t-0.5 18q0 13 -5 29t-17 29.5t-31.5 22.5t-49.5 9h-133v-97h-438v97zM955 310v-52q0 -23 0.5 -52t0.5 -58t-10.5 -47.5t-26 -30t-33 -16t-31.5 -4.5q-14 -1 -29.5 -0.5
t-29.5 0.5h-32l-45 128h-439l-44 -128h-29h-34q-20 0 -45 1q-25 0 -41 9.5t-25.5 23t-13.5 29.5t-4 30v167h911zM163 247q-12 0 -21 -8.5t-9 -21.5t9 -21.5t21 -8.5q13 0 22 8.5t9 21.5t-9 21.5t-22 8.5zM316 123q-8 -26 -14 -48q-5 -19 -10.5 -37t-7.5 -25t-3 -15t1 -14.5
t9.5 -10.5t21.5 -4h37h67h81h80h64h36q23 0 34 12t2 38q-5 13 -9.5 30.5t-9.5 34.5q-5 19 -11 39h-368zM336 498v228q0 11 2.5 23t10 21.5t20.5 15.5t34 6h188q31 0 51.5 -14.5t20.5 -52.5v-227h-327z" />
    

    
    <glyph glyph-name="go" unicode="&#58890;" d="M280.733251 887.525064C273.798371 893.584768 265.599346 896.399664 256.079879 895.954399c-9.529703-0.445265-17.319288-4.140456-23.399464-11.054865-6.049468-6.914409-8.843892-14.924068-8.429334-24.003387 0.481091-9.07932 4.135338-16.643713 11.059983-22.713653l487.954568-442.532381c6.039232-6.059704 9.084438-12.748921 9.084438-20.083004 0-7.349438-3.050324-13.634333-9.084438-18.823979l-487.954568-425.663476c-6.929762-6.888819-10.578891-14.924068-11.059983-24.003387-0.409439-9.07932 2.384985-17.073625 8.429334-24.008505 6.080176-6.888819 13.624097-10.584009 22.713653-11.019039 9.07932-0.455501 17.114569 2.344041 23.998269 8.429335l487.954569 425.658358c21.654228 19.059406 32.448075 42.172262 32.448075 69.430693 0 27.243077-10.37929 50.381523-31.142987 69.420456L280.733251 887.525064z"  horiz-adv-x="1024" />

    
    <glyph glyph-name="back" unicode="&#58891;" d="M255.360577 444.970006c-20.763095-19.043499-31.142083-42.176155-31.142083-69.418441 0-27.257639 10.788416-50.374942 32.442015-69.428677l487.940399-425.645998c6.888619-6.085117 14.918516-8.884578 23.997573-8.429089 9.084174 0.435017 16.627876 4.135218 22.712993 11.018719 6.049292 6.934679 8.843635 14.928752 8.42909 24.007807-0.481077 9.079056-4.135218 17.119189-11.059662 24.002691l-487.940399 425.651115c-6.039056 5.189494-9.089292 11.474207-9.089292 18.823432 0 7.333871 3.050235 14.022894 9.089292 20.082421l487.940399 442.519531c6.929561 6.064646 10.578584 13.62882 11.059662 22.712993 0.409428 9.084174-2.384915 17.0936-8.42909 24.00269-6.079999 6.914208-13.869358 10.604174-23.398784 11.054544-9.519191 0.445252-17.717977-2.37468-24.652657-8.42909L255.360577 444.970006z"  horiz-adv-x="1024" />

    
    <glyph glyph-name="big-putin" unicode="&#58892;" d="M533.143411 320.856249v-257.716335a20.483479 20.483479 0 0 1 20.483479-20.483479h271.876742a20.498826 20.498826 0 0 1 20.483479 20.483479v257.716335a20.483479 20.483479 0 0 1-20.483479 20.473248h-271.876742a20.468131 20.468131 0 0 1-20.483479-20.473248zM198.496368 341.329497a20.478363 20.478363 0 0 1-20.478363-20.473248v-257.716335a20.49371 20.49371 0 0 1 20.478363-20.483479h271.881858a20.488594 20.488594 0 0 1 20.478363 20.483479v257.716335a20.473247 20.473247 0 0 1-20.478363 20.473248H198.496368zM813.737398 802.913742h-98.688009V725.430533h98.69824c45.412548 0 82.353407-37.314309 82.353407-83.182159v-609.593238c0-45.862734-36.940859-83.182159-82.353407-83.182159H210.247255c-45.407432 0-82.348291 37.309193-82.348291 83.182159V642.248374c0 45.86785 36.940859 83.182159 82.348291 83.182159h98.703356V802.913742H210.247255c-87.69937 0-159.04879-72.075857-159.04879-160.665368v-609.593238c0-88.574163 71.34942-160.655136 159.04879-160.655136h603.490143c87.714717 0 159.064137 72.080973 159.064137 160.655136V642.248374c0 88.589511-71.344304 160.665368-159.064137 160.665368zM649.056163 652.167821h-98.708472V896.005116H473.647193v-243.837295H374.948952L512 467.586303z"  horiz-adv-x="1024" />

    
    <glyph glyph-name="lock" unicode="&#58893;" d="M423.214152 879.099256C459.22405 893.18274 496.559873 898.465966 535.293294 894.943815c38.728302-3.522151 74.118751-15.475962 106.207185-35.794882 31.325642-17.969113 57.286146-42.429632 78.050454-73.345721 20.723353-30.885373 33.813673-63.961851 39.311914-99.173121 2.344688-14.083484 3.522151-35.206151 3.522151-63.373119V508.198336c5.503361 0 17.247277 0.184299 35.252225 0.624567 18.010068 0.368597 29.743745 0.184299 35.252226-0.624567 13.274618 0 25.776206-4.105763 37.550838-12.317289 11.738797-8.211526 19.945203-18.962278 24.608982-32.236896 3.117718-7.044302 4.290062-19.586845 3.557987-37.561077v-484.705302c0.732075-12.537424-2.201344-24.4554-8.810497-35.789763-6.634749-11.370199-15.435007-19.771144-26.405893-25.238668-10.192736-6.266152-22.668727-9.020392-37.550839-8.211527H195.605389c-18.015188-0.808866-33.670329 4.694495-46.944947 16.423053-15.629545 14.088604-23.472474 31.694239-23.472474 52.811786V419.043891c0 24.27622 1.98121 40.310198 5.866839 48.117291 4.689375 11.733677 12.537424 21.491264 23.472473 29.339313 10.924811 7.776377 23.062921 11.733677 36.373376 11.733677 5.503361 0.767911 17.421337 0.957329 35.794882 0.583612 18.378665-0.363478 29.933163-0.583612 34.622539-0.583612V615.040326c0 34.433121 1.54606 58.678624 4.699614 72.797945 7.039182 43.018363 24.829116 81.971919 53.400517 116.74292 28.576521 34.832434 63.199059 59.625714 103.872736 74.518065h-0.076792z m-18.783098-59.850968c-48.480769-29.779581-79.002664-72.024914-91.545207-126.751358-3.148434-14.083484-5.052853-42.250453-5.866838-84.500906v-99.756733c50.871531 0.767911 119.343578 0.957329 205.380305 0.583612 86.118637-0.363478 154.186251-0.583612 204.243797-0.583612v140.834842c-0.767911 57.910714-22.29501 106.432438-64.545463 145.529337-35.21127 33.66521-77.456603 52.043875-126.756478 55.161593-43.82211 2.339568-84.086233-7.817332-120.910116-30.516775zM189.66176 462.466688c-6.235436-0.803747-11.150065-3.737166-14.672216-8.805378-3.522151-5.057973-4.90951-10.346318-4.105763-15.83944v-496.449217c-0.767911-6.271272 1.392478-11.958931 6.45557-17.011784 5.098928-5.057973 10.781468-7.627914 17.016903-7.627914h625.535024c12.542543 0.767911 20.713114 2.349807 24.639699 4.699614 6.235436 4.694495 9.38387 12.132991 9.38387 22.29501V437.82699c0 9.388989-3.517031 16.428172-10.561334 21.122666-3.153554 2.344688-11.728558 3.9573-25.817161 4.694495H213.098397c-14.851395-0.737194-22.704563-1.141627-23.477593-1.141627l0.040956-0.035836z m272.275575-180.740607c9.394109 10.197856 21.132905 16.796769 35.257345 19.950322 14.073245 3.153554 27.393938 2.344688 39.936481-2.354926 11.738797-4.730331 21.486144-12.317289 29.308596-22.878623 7.812213-10.566453 12.496469-22.079995 14.073245-34.627658 1.581896-21.926413-5.825883-40.699273-22.29501-56.328817v-57.506281c-0.762791-9.388989-1.945374-16.433291-3.552868-21.127786-6.235436-18.040785-18.77286-28.202804-37.555957-30.547492-9.388989-0.762791-18.189247 0.988045-26.405893 5.313943-8.211526 4.295181-14.231947 10.745632-18.153412 19.366711-2.339568 3.117718-3.926584 6.819048-4.694495 11.150065-0.77303 4.325898-1.141627 7.807093-1.141627 10.561333v61.612044l-7.069899 8.800258-9.394109 14.672215c-5.462406 11.738797-7.259317 24.639698-5.319062 38.723183 1.970971 14.098842 7.627914 25.83252 17.006665 35.221509z"  horiz-adv-x="1024" />

    
    <glyph glyph-name="no-preorder-putin" unicode="&#58894;" d="M251.261416 150.193159v-44.353047a20.474574 20.474574 0 0 1 20.479693-20.484811h497.608933a20.479693 20.479693 0 0 1 20.484812 20.484811v44.353047a20.474574 20.474574 0 0 1-20.484812 20.479693H271.746227a20.474574 20.474574 0 0 1-20.484811-20.479693zM650.571918 652.173414h-99.793074V896H473.221156V652.173414H373.422963L512 467.595127zM817.091631 802.912348h-99.798194v-77.475789h99.798194c45.919351 0 83.254737-37.314912 83.254737-83.177958v-609.574142c0-45.863046-37.335386-83.183076-83.254737-83.183077H206.908369c-45.909114 0-83.270093 37.309793-83.270093 83.183077V642.258601c0 45.863046 37.360979 83.177958 83.270093 83.177958H306.691207V802.912348H206.908369c-88.6805 0-160.817543-72.07562-160.817543-160.658865v-609.574143c0-88.583245 72.137044-160.669103 160.817543-160.669103h610.18838c88.675381 0 160.817543 72.085857 160.817544 160.669103V642.258601c-0.005119 88.583245-72.142162 160.653747-160.822662 160.653747z"  horiz-adv-x="1024" />

    
    <glyph glyph-name="keyboard" unicode="&#58895;" d="M966.96832 725.22752H57.03168c-15.4112 0-28.73856-5.63712-39.9872-16.88064C5.82656 697.07264 0.16384 683.74016 0.16384 668.35456v-568.70912c0-15.40608 5.63712-28.73856 16.88064-39.9872 11.27424-11.21792 24.60672-16.88576 39.9872-16.88576h909.94176c15.40608 0 28.73856 5.64224 39.9872 16.88576 11.21792 11.26912 16.88576 24.60672 16.88576 39.9872V668.35456c0 15.4112-5.64224 28.73856-16.88576 39.99232-11.27424 11.2128-24.61184 16.88064-39.99232 16.88064z m-398.10048-113.7408h113.74592v-113.7408h-113.74592V611.48672z m170.61888-170.61888v-113.7408h-113.74592V440.86784h113.74592zM398.2592 611.48672H512v-113.7408H398.2592V611.48672z m170.60864-170.61888v-113.7408H455.13216V440.86784h113.73568zM227.64544 611.48672h113.7408v-113.7408H227.64544V611.48672z m170.61376-170.61888v-113.7408H284.51328V440.86784h113.74592zM113.90464 611.48672h56.86784v-113.7408H113.90464V611.48672z m0-170.61888h113.7408v-113.7408H113.90464V440.86784z m56.86784-284.35456H113.90464v113.74592h56.86784v-113.74592z m511.84128 0H227.64544v113.74592h454.96832v-113.74592z m227.48672 0h-170.61376v113.74592h170.61376v-113.74592z m0 170.61888h-113.74592V440.86784h113.74592v-113.73568z m0 170.61376h-170.61376V611.48672h170.61376v-113.7408z"  horiz-adv-x="1024" />

    
    <glyph glyph-name="print-merge-label" unicode="&#58896;" d="M955.695463 706.493905h-121.370049V804.848407c0 44.839135-22.657448 91.151593-67.240798 91.151593H282.177378c-44.58335 0-93.75037-46.312458-93.75037-91.151593V706.493905H93.571647c-44.552656 0-93.561089-46.51197-93.561089-91.351105v-298.086887c0-44.823788 49.008433-70.770633 93.561089-70.770633h94.824667v-303.862515c0-44.844251 49.172135-70.422765 93.75037-70.422765h484.943047c44.58335 0 67.251029 25.578514 67.25103 70.422765v303.882978h121.359817c44.578234 0 68.212781 25.946845 68.212782 70.801327V615.1428c-0.015347 44.839135-23.639663 91.351105-68.217897 91.351105zM242.249317 804.848407c0 14.942968 25.097638 38.168259 39.928061 38.168259h484.932816c14.861117 0 13.418488-23.225291 13.418489-38.168259V706.493905H242.249317V804.848407z m538.258903-852.045881c0-14.948084-11.67915-27.819192-26.540266-27.819192H269.009559c-14.856001 0-26.755126 12.871108-26.755126 27.819192V354.533552c0 14.968546 11.899125 27.102993 26.755126 27.102993h484.958395c14.861117 0 26.540266-12.139563 26.540266-27.102993v-401.731026z m175.187243 347.647816h-121.370049v43.734143c0 44.834019-22.657448 91.60689-67.240798 91.60689H282.177378c-44.58335 0-93.75037-46.772871-93.75037-91.60689v-43.734143H93.571647c-14.835538 0-39.733664 1.698413-39.733664 16.656728V615.1428c0 14.942968 24.89301 37.206507 39.733664 37.206507H955.695463c14.856001 0 13.218976-22.263539 13.218976-37.206507v-298.03573c0-14.958315 1.662603-16.656728-13.218976-16.656728zM826.416537 585.077815a39.876903 39.651812 90 1 1 79.303625 0 39.876903 39.651812 90 1 1-79.303625 0ZM594.225018 308.15459h-53.60745a20.483274 20.483274 0 0 1-20.483274-20.483274v-271.930298a20.483274 20.483274 0 0 1 20.483274-20.483275h53.60745a20.48839 20.48839 0 0 1 20.483274 20.483275V287.671316a20.48839 20.48839 0 0 1-20.483274 20.483274zM480.738267 308.15459H427.135933a20.483274 20.483274 0 0 1-20.483274-20.483274v-271.930298a20.483274 20.483274 0 0 1 20.483274-20.483275h53.607449a20.483274 20.483274 0 0 1 20.478159 20.483275V287.671316a20.493505 20.493505 0 0 1-20.483274 20.483274zM702.908124 213.304344l-69.251269-52.129011 69.251269-52.113665v37.539027h44.189441v29.174854h-44.189441zM318.452826 175.775549h-44.194556v-29.174854h44.194556v-37.539027l69.241038 52.113665-69.241038 52.129011z"  horiz-adv-x="1024" />

    
    <glyph glyph-name="reprint-label" unicode="&#58897;" d="M923.90912 323.77856V592.03072c-0.00512 40.35072-21.32992 82.21184-61.54752 82.21184h-109.52192V762.75712c0 40.36096-20.44928 82.04288-60.67712 82.04288h-437.5552c-40.22784 0-84.59264-41.68192-84.59264-82.04288v-88.51968H84.41856C44.22144 674.23744 0 632.38144 0 592.03072v-268.26752c0-40.36096 44.22144-63.70816 84.41856-63.70816H169.984v-273.47456c0-40.35584 44.37504-63.37536 84.60288-63.37536h437.57568c40.23296 0 60.68736 23.01952 60.68736 63.37536v273.50528h109.51168c40.2176-0.00512 61.54752 23.33696 61.54752 63.6928zM218.57792 762.75712c0 13.46048 22.65088 34.36032 36.02944 34.36032h437.5808c13.40928 0 12.1088-20.89984 12.1088-34.36032v-88.51968H218.57792V762.75712z m485.7088-766.83776c0-13.4656-10.5472-25.04192-23.95648-25.04192H242.72896c-13.40928 0-24.15104 11.57632-24.15104 25.04192V357.4784c0 13.48096 10.74176 24.40192 24.15104 24.40192h437.60128c13.40928 0 23.95648-10.92096 23.95648-24.40192v-361.55904z m48.55296 312.87808V348.16c0 40.36096-20.44928 82.45248-60.67712 82.45248h-437.5552c-40.22784 0-84.59264-42.09152-84.59264-82.45248v-39.36256H84.41856c-13.37856 0-35.84 1.536-35.84 14.98624V592.03072c0 13.45024 22.46144 33.49504 35.84 33.49504H862.3616c13.40416 0 11.93472-20.0448 11.93472-33.49504v-268.25216c0-13.45024 1.49504-14.98624-11.93472-14.98624h-109.52192zM745.71264 564.9664a35.8912 35.77856 90 1 1 71.55712 0 35.8912 35.77856 90 1 1-71.55712 0ZM904.66304 176.63488v61.44L830.08512 161.28l74.57792-76.80512v61.45024c49.44384 0 89.49248-41.24672 89.49248-92.16512 0-50.92352-40.04864-92.16-89.49248-92.16-49.45408 0-89.50272 41.23648-89.50272 92.16h-29.83936c0-67.89632 53.40672-122.88 119.3472-122.88S1024-14.13632 1024 53.76c0 67.8912-53.39648 122.87488-119.33696 122.87488zM487.05024 324.25984H434.55488v-165.07904H366.98112L460.8 34.22208l93.80864 124.95872H487.05024z"  horiz-adv-x="1024" />

    
    <glyph glyph-name="return-goods" unicode="&#58898;" d="M1024.015411 554.65984a33.87904 33.87904 0 0 1-5.56032 18.6112C996.357171 644.25472 909.219891 896 785.080371 896H221.865011C143.211571 896 39.746611 654.08 8.995891 577.58208A33.792 33.792 0 0 1 2.467891 567.22432l-0.08192-0.19968a34.048 34.048 0 0 1-2.3808-12.3648V332.8a34.13504 34.13504 0 0 1 68.25984 0V486.4a34.12992 34.12992 0 0 0 34.14016 34.12992H921.610291A34.11968 34.11968 0 0 0 955.740211 486.4v-512a34.13504 34.13504 0 0 0-34.12992-34.14016H102.405171A34.14528 34.14528 0 0 0 68.265011-25.6v204.8a34.13504 34.13504 0 1 1-68.25984 0v-238.94016c0-2.35008 0.4608-4.5824 0.70144-6.88128C4.183091-101.03808 32.926771-128 68.265011-128h887.4752c37.71392 0 68.2752 30.56128 68.2752 68.25984V520.52992c0 5.79072-0.94208 11.32032-2.29888 16.6912 1.47968 4.41344 2.29888 10.08128 2.29888 17.43872zM83.184691 588.8c31.61088 75.0336 107.4176 238.93504 166.28736 238.93504h511.14496c91.008 0 157.66528-163.90656 183.41376-238.93504H83.184691zM443.806771 401.07008c-8.52992 4.25984-153.6512-68.8128-153.6512-80.19456s146.52928-88.71936 153.6512-80.18944 0 47.17056 0 47.17056h117.88288c54.73792 0 99.11808-40.0896 99.11808-89.57952 0-49.47968-44.38016-89.57952-99.11808-89.57952 0 0-175.20128 8.52992-183.74144 0-8.53504-8.54016-7.12192-63.20128 0-66.03776 7.1168-2.8416 183.74144 0 183.74144 0 95.09888 0 172.16512 69.66784 172.16512 155.6224 0 85.9392-77.06624 155.62752-172.16512 155.62752H443.806771s8.54528 42.89024 0 47.16032z"  horiz-adv-x="1024" />

    
    <glyph glyph-name="replace-label" unicode="&#58899;" d="M478.336 314.55232c-10.69056 8.56064-23.04 11.392-36.35712 11.392H263.424l-177.98144-0.05632c-5.77024-0.07168-11.78112-0.45568-17.29024-1.93536-25.2672-6.89664-39.7312-26.66496-39.7312-53.78048-0.0768-107.49952-0.0768-214.92224 0.05632-322.36544a61.79328 61.79328 0 0 1 1.85856-15.70816c6.912-25.10848 26.04544-39.72608 52.992-39.79776 120.13568-0.19456 240.25088-0.06144 360.43776-0.06144a53.20704 53.20704 0 0 1 33.34656 10.42432c14.91968 11.3408 21.38624 26.66496 21.38624 45.21984v322.42688c0.03584 2.0736-0.04608 4.16256-0.256 6.24128a52.10112 52.10112 0 0 1-19.90656 38.00064z m-25.98912-334.99648c0-15.02208-5.28896-27.42272-17.47456-36.58752a43.7248 43.7248 0 0 0-27.24864-8.44288c-98.23232 0-196.39808-0.10752-294.57408 0.0512-22.02624 0.0512-37.66272 11.88864-43.30496 32.21504a49.29024 49.29024 0 0 0-1.52064 12.71296c-0.10752 86.95808-0.10752 173.90592-0.04608 260.91008 0 21.94944 11.81696 37.95456 32.48128 43.53024 4.49536 1.19296 9.41056 1.52064 14.11584 1.5616l145.4592 0.05632h145.92512c10.88 0 20.97664-2.28352 29.70624-9.23136a42.0096 42.0096 0 0 0 16.27136-30.7456c0.17408-1.67424 0.25088-3.36896 0.21504-5.05856v-260.97152zM381.37856 225.64864H130.62656a19.69664 19.69664 0 0 1-19.69152-19.69152v-11.9808a19.69152 19.69152 0 0 1 19.69152-19.69152h250.752a19.69152 19.69152 0 0 1 19.69152 19.69152v11.9808a19.69664 19.69664 0 0 1-19.69152 19.69152zM381.37856 140.0576H130.62656a19.70176 19.70176 0 0 1-19.69152-19.69664v-11.9808a19.69664 19.69664 0 0 1 19.69152-19.69664h250.752a19.69664 19.69664 0 0 1 19.69152 19.69664v11.9808a19.70176 19.70176 0 0 1-19.69152 19.69664zM381.37856 54.46144H130.62656a19.69664 19.69664 0 0 1-19.69152-19.69152v-11.98592a19.69664 19.69664 0 0 1 19.69152-19.69152h250.752a19.69664 19.69664 0 0 1 19.69152 19.69152v11.98592a19.70176 19.70176 0 0 1-19.69152 19.69152zM285.06112 589.16864H200.63744c1.536 12.18048 2.24768 23.9616 4.67456 35.30752a169.37984 169.37984 0 0 0 54.46144 94.67392c22.59968 20.096 48.65536 33.9968 78.73024 37.87264 19.25632 2.5088 38.90176 2.1248 58.49088 2.96448h7.296V874.56256C331.01312 880.30208 263.36768 866.06336 204.92288 820.0192c-74.17344-58.48064-109.30688-136.67328-111.616-231.28576H0l142.32576-167.39328a132256.57856 132256.57856 0 0 1 142.73536 167.82848zM1024 178.65216l-142.52032 167.5776-142.91968-168.0384h83.90144c-0.62976-34.05824-9.27232-65.0496-27.25888-93.056-25.088-39.22944-60.09856-64.73216-105.79968-74.08128-12.01152-2.50368-24.69888-2.69824-37.03808-3.2768-10.81856-0.52736-21.76-0.13312-32.83968-0.13312v-114.64192c69.68832-5.34528 134.66112 6.88128 191.55968 48.8192 79.22176 58.34752 116.78208 138.4704 119.47008 236.93824v-0.11264H1024zM912.52224 442.3936c5.82144-0.12288 11.648 0.512 17.34144 1.87392 23.90016 5.5552 40.56064 27.40224 39.66976 52.096 0.13824 108.5952 0.19968 217.18016-0.128 325.77024a60.16 60.16 0 0 1-5.36064 24.09472c-9.98912 21.18656-28.09856 29.94688-50.88768 29.94688l-356.992-0.06144c-5.44768 0-10.95168-0.32768-16.19968-1.67936-24.8832-6.56896-40.25344-26.08128-40.25344-52.23424-0.20992-108.58496-0.22528-217.18016-0.0512-325.76512a52.20864 52.20864 0 0 1 21.43232-43.60704 56.1408 56.1408 0 0 1 35.01056-10.43456h178.49856c59.25888 0 118.58944-0.128 177.92 0zM546.12992 753.7664a19.69664 19.69664 0 0 0 19.70176 19.69152h336.07168a19.6864 19.6864 0 0 0 19.69152-19.69152v-11.9808a19.69664 19.69664 0 0 0-19.69152-19.69152h-336.07168a19.70176 19.70176 0 0 0-19.70176 19.69152v11.9808z m0-85.59616a19.69664 19.69664 0 0 0 19.70176 19.69152h336.07168a19.6864 19.6864 0 0 0 19.69152-19.69152v-11.9808a19.69664 19.69664 0 0 0-19.69152-19.69152h-336.07168a19.70176 19.70176 0 0 0-19.70176 19.69152v11.9808z m0-97.57696v11.9808a19.69664 19.69664 0 0 0 19.70176 19.69152h336.07168a19.6864 19.6864 0 0 0 19.69152-19.69152v-11.9808a19.69152 19.69152 0 0 0-19.69152-19.69152h-336.07168a19.70176 19.70176 0 0 0-19.70176 19.69152z"  horiz-adv-x="1024" />

    
    <glyph glyph-name="settings" unicode="&#58900;" d="M995.50208 460.36992l-108.31872 18.24256c-6.8352 1.52576-13.50656 5.12512-19.94752 10.8288-6.48704 5.69344-10.8288 11.97056-13.11744 18.81088l-12.53888 30.78656c-3.06688 6.0928-4.38272 13.32736-3.98848 21.69856 0.38912 8.37632 2.85184 15.56992 7.40864 21.66272l62.70976 88.97024c4.56704 6.06208 6.69696 13.09696 6.272 21.07392-0.35328 7.9872-3.20512 14.62784-8.51968 19.95264l-64.98816 64.99328c-6.08768 5.3248-12.92288 8.15616-20.5568 8.53504-7.58784 0.34816-14.464-1.73568-20.52608-6.27712l-88.9344-62.73024c-13.71648-9.87136-28.544-11.40224-44.50304-4.56192l-30.78656 12.55936c-6.0928 3.03104-11.97056 7.78752-17.6384 14.24896-5.69344 6.47168-9.33376 13.12768-10.86976 19.97312l-18.23744 108.31872c-0.75264 6.84032-4.16768 12.91264-10.22976 18.24256C572.10368 891.02848 565.65248 894.07488 558.80704 894.8224H465.26976c-6.79936-0.74752-13.29152-3.79392-19.34336-9.12384-6.0928-5.3248-9.51296-11.40224-10.26048-18.24256l-18.24768-108.31872c-1.5616-6.84544-5.13024-13.50656-10.8288-19.97312-5.70368-6.46144-11.97056-10.8288-18.85184-13.09184l-30.78656-12.544c-6.0928-3.0464-13.29152-4.3776-21.69856-3.98848-8.34048 0.38912-15.57504 2.87232-21.66272 7.40864L224.65024 779.69408c-6.05696 4.56192-13.11232 6.66624-21.08928 6.272-7.9872-0.38912-14.61248-3.24096-19.95776-8.52992L117.47328 712.43776c-4.59776-5.3248-7.05536-11.97056-7.41376-19.94752-0.35328-7.9872 1.71008-15.02208 6.272-21.11488L179.0464 582.44608c9.87136-13.69088 11.40224-28.50816 4.56192-44.47232l-13.68576-30.78656c-2.27328-6.0928-6.66112-11.97568-13.11232-17.67424-6.41024-5.70368-13.11232-9.29792-19.95264-10.8288L28.53376 460.4416c-6.84032-0.78336-12.89728-4.20352-18.24256-10.26048C4.94592 444.11904 1.92 437.63712 1.16736 430.7968v-93.50144c0.75264-6.84544 3.77856-13.32736 9.12384-19.3792 5.34528-6.06208 11.40224-9.48224 18.24256-10.2656l108.31872-18.23744c6.84032-1.50528 13.50656-5.13536 19.95264-10.83392 6.48704-5.7088 10.83392-11.9808 13.11232-18.82112l12.544-30.78656c3.06688-6.06208 4.38272-13.32224 3.9936-21.6576-0.38912-8.41728-2.85184-15.60576-7.41376-21.66272L116.3264 96.64c-4.5568-6.06208-6.69696-13.11232-6.272-21.08416 0.3584-7.9872 3.20512-14.61248 8.51968-19.95264l64.98816-64.93184c5.30944-5.34016 11.97056-8.04352 19.95264-8.04352 7.9872 0 15.00672 1.92512 21.0944 5.69344l88.97024 62.71488c6.05696 4.62336 13.29152 7.26528 21.66272 8.05376 8.33536 0.70656 15.96416-0.43008 22.79936-3.49184l29.64992-12.54912c6.84032-2.28352 13.11232-6.84032 18.816-13.68064 5.73952-6.84032 9.33376-13.68576 10.8288-20.52608l18.24256-108.31872c0.78848-6.84032 4.20864-12.9024 10.2656-18.24256 6.0928-5.34016 12.53888-8.41216 19.3792-9.11872h93.49632c6.84544 0.71168 13.33248 3.77856 19.3792 9.11872 6.0928 5.34528 9.51808 11.40736 10.27072 18.24256l18.24256 108.31872c1.53088 6.84032 5.13024 13.47072 10.83392 19.94752 5.69856 6.49728 11.97056 10.83392 18.81088 13.11744l29.68064 12.54912c6.84544 3.05664 14.42816 4.34176 22.80448 3.98848 8.37632-0.43008 15.60576-2.85184 21.69856-7.41376l88.9344-62.71488c6.06208-4.5568 13.11744-6.70208 21.0944-6.272 7.98208 0.34816 14.60736 3.21024 19.95264 8.47872l64.98816 64.98816c4.56192 5.3504 7.05536 11.9808 7.40864 19.95264 0.35328 7.9872-1.35168 15.03744-5.16096 21.0944l-62.71488 89.0112c-4.59776 6.05696-7.23456 13.25056-8.0128 21.65248-0.7168 8.3456 0.42496 15.96928 3.456 22.81472l13.67552 30.78656c2.28352 6.06208 6.67136 11.96544 13.0816 17.664 6.49216 5.70368 13.11744 9.27232 19.95264 10.83392l108.35456 18.24256c6.84544 0.7168 12.928 4.13696 18.24256 10.2656 5.31456 6.05696 8.38144 12.53376 9.12384 19.30752V430.72512c-0.74752 6.84032-3.80928 13.25568-9.12384 19.3792-5.30944 6.06208-11.39712 9.48224-18.24256 10.1888l0.0512 0.0768z m-484.02432-295.31648c-60.42112 0-111.9488 21.30432-154.49088 63.85152-42.5472 42.54208-63.85152 94.2848-63.85152 155.06944s21.30432 112.49152 63.85152 155.06432c42.54208 42.5472 94.06976 63.85152 154.49088 63.85152 60.43648 0 112.1024-21.30432 155.07456-63.85152 42.94144-42.5728 64.42496-94.27968 64.42496-155.06432s-21.48352-112.53248-64.42496-155.06944c-42.97216-42.5472-94.63808-63.85152-155.07456-63.85152z"  horiz-adv-x="1024" />

    
    <glyph glyph-name="small-putin" unicode="&#58901;" d="M194.92864 373.77536v-112.51712a20.45952 20.45952 0 0 1 20.45952-20.45952h112.512a20.4544 20.4544 0 0 1 20.44928 20.45952v112.51712a20.4544 20.4544 0 0 1-20.44928 20.4544H215.38816a20.45952 20.45952 0 0 1-20.45952-20.4544zM593.82784 373.77536a20.45952 20.45952 0 0 1-20.45952 20.4544H460.86144a20.4544 20.4544 0 0 1-20.44928-20.4544v-112.51712a20.4544 20.4544 0 0 1 20.44928-20.45952h112.512a20.45952 20.45952 0 0 1 20.45952 20.45952v112.51712zM706.33984 240.79872h112.512a20.4544 20.4544 0 0 1 20.44928 20.45952v112.51712a20.4544 20.4544 0 0 1-20.44928 20.4544h-112.512a20.45952 20.45952 0 0 1-20.45952-20.4544v-112.51712a20.45952 20.45952 0 0 1 20.45952-20.45952zM327.90016 169.216H215.38816a20.45952 20.45952 0 0 1-20.45952-20.45952v-112.51712a20.4544 20.4544 0 0 1 20.45952-20.44928h112.512a20.44928 20.44928 0 0 1 20.44928 20.44928v112.51712a20.4544 20.4544 0 0 1-20.44928 20.45952zM573.36832 169.216H460.86144a20.4544 20.4544 0 0 1-20.44928-20.45952v-112.51712a20.44928 20.44928 0 0 1 20.44928-20.44928h112.512a20.4544 20.4544 0 0 1 20.45952 20.44928v112.51712a20.46464 20.46464 0 0 1-20.46464 20.45952zM706.33984 15.79008h112.512a20.44928 20.44928 0 0 1 20.44928 20.44928v112.51712a20.4544 20.4544 0 0 1-20.44928 20.45952h-112.512a20.45952 20.45952 0 0 1-20.45952-20.45952v-112.51712a20.4544 20.4544 0 0 1 20.45952-20.44928zM813.3888 802.42176h-98.58048v-77.3888h98.59072c45.35808 0 82.24768-37.27872 82.24768-83.08224v-608.88576c0-45.7984-36.8896-83.08736-82.24768-83.08736H210.60608c-45.34784 0-82.2528 37.26848-82.2528 83.08736V641.95072c0 45.80352 36.90496 83.08224 82.2528 83.08224h98.5856V802.42176H210.60608c-87.59808 0-158.86336-71.99232-158.86336-160.47104v-608.88576c0-88.4736 71.26528-160.47104 158.86336-160.47104h602.78272c87.60832 0 158.86848 71.99744 158.86848 160.47104V641.95072c0.00512 88.48384-71.25504 160.47104-158.86848 160.47104zM648.88832 651.8528h-98.58048V895.40608H473.69728v-243.55328H375.11168L512 467.49184z"  horiz-adv-x="1024" />

    
    <glyph glyph-name="user" unicode="&#58902;" d="M990.202179-127.943683h-68.706621c0 84.306403-23.443191 160.841074-70.329572 229.542575-46.927339 68.701501-108.159171 118.316693-183.777412 148.850693-49.441121-24.738479-101.416502-37.112839-155.956863-37.112839-54.519881 0-106.147122 12.374359-154.866362 37.112839-75.597762-30.534001-137.019024-80.149192-184.268905-148.850693S101.419062-43.63728 101.419062-127.943683H33.797821c0 90.127523 23.27424 173.010644 69.786882 248.628885 46.533121 75.582403 108.691622 133.742404 186.490863 174.469764-37.077001 31.972642-66.346431 70.503642-87.798051 115.593003-21.4465 45.08424-32.172311 93.061122-32.172311 143.940883 0 94.510002 33.44712 175.032933 100.326002 241.532956C337.299849 862.737189 417.827899 896 511.964162 896c94.161861 0 174.474884-33.262811 240.995385-99.778192 66.515382-66.500022 99.767953-147.022954 99.767953-241.532956 0-50.895121-10.561979-98.877122-31.624501-143.940883-21.09836-45.074001-50.163001-83.594762-87.234882-115.593003 77.0876-40.72736 139.031073-98.887361 185.922575-174.469764 46.850543-75.618241 70.329572-158.496243 70.329571-248.628885h0.081916zM785.193294 554.683732c0 75.597762-26.72493 140.121573-80.149191 193.556075-53.439621 53.434501-117.774002 80.144072-193.008265 80.144072-75.229142 0-139.568644-26.714691-192.998025-80.144072C265.603312 694.810425 238.873262 630.286614 238.888621 554.683732c0-75.602882 26.714691-140.126693 80.144072-193.550954 53.434501-53.439621 117.768883-80.159431 192.998025-80.159432 75.234262 0 139.573763 26.72493 193.008265 80.159432 53.434501 53.429381 80.154312 117.948073 80.154311 193.550954z"  horiz-adv-x="1024" />

    
    <glyph glyph-name="delete" unicode="&#58903;" d="M572.127513 383.969291l438.32486 438.319742c7.728341 8.639363 11.628338 18.762978 11.628337 30.386197 0 11.618101-4.094485 21.516519-12.298809 29.741316-8.168498 8.219679-18.10786 12.3244-29.741316 12.273219-11.633456-0.010236-21.78266-3.899997-30.370843-11.618102l-438.314623-438.329977-438.314624 438.329977C64.396013 891.705909 54.272399 896.025591 42.654298 896.025591S21.132661 891.700791 12.912982 883.071663C4.688185 874.442536 0.5937 864.334276 0.634645 852.716175c0.015354-11.618101 3.899997-21.736597 11.618101-30.370843L450.572488 384.015354 12.252746-54.299269c-7.764167-8.644482-11.618101-18.773214-11.618101-30.370843 0-11.607865 4.084249-21.75707 12.278337-30.345252 8.18897-8.639363 18.10786-12.984636 29.741316-12.984636 11.628338 0 21.787779 4.345272 30.386197 12.984636l438.314624 438.289033 438.319741-438.289033c8.6496-8.639363 18.732269-12.984636 30.370843-12.984636 11.628338 0 21.75707 4.345272 30.40667 12.984636 8.577946 8.588182 12.912982 18.737387 12.912982 30.345252 0 11.597629-4.340154 21.721243-12.912982 30.370843l-438.32486 438.26856z"  horiz-adv-x="1024" />

    
    <glyph glyph-name="success" unicode="&#58904;" d="M512 896C228.4288 896 0 667.5712 0 384s228.4288-512 512-512 512 228.4288 512 512S795.5712 896 512 896z m0-945.2288c-240.24576 0-433.2288 192.98304-433.2288 433.2288S271.75424 817.2288 512 817.2288 945.2288 624.24576 945.2288 384 752.24576-49.2288 512-49.2288zM775.87456 569.10848c-19.69152 15.75424-43.32032 15.75424-59.07456-3.93728l-208.7424-248.12544c-15.74912-15.75424-43.32032-19.69152-59.07456-7.87456L299.32032 423.38304C283.5712 435.2 256 431.26272 244.18304 415.50848s-7.87456-43.32032 7.87456-55.13728l149.6576-114.21696c19.69664-15.75424 47.26272-23.63392 74.83392-23.63392 35.44576 0 70.89152 15.75936 94.52544 43.32544l208.73728 248.12544c15.75936 15.74912 11.81696 43.32032-3.93728 55.13728z"  horiz-adv-x="1024" />

    
    <glyph glyph-name="question" unicode="&#58905;" d="M481.83296 350.16704a42.55232 42.55232 0 0 0 30.16704 12.50304c70.69184 0 128 57.30304 128 128s-57.30816 128-128 128-128-57.30816-128-128a42.66496 42.66496 0 0 0-85.32992 0c0.02048 117.82144 95.55456 213.31456 213.376 213.28896 117.82144-0.0256 213.31456-95.55968 213.29408-213.376-0.0256-101.36064-71.36256-188.71296-170.67008-208.98304v-46.92992c0-23.57248-19.10272-42.67008-42.67008-42.67008s-42.66496 19.0976-42.66496 42.67008V320c0 11.776 4.77696 22.44096 12.49792 30.16704zM512-128C229.248-128 0 101.248 0 384S229.248 896 512 896s512-229.248 512-512-229.248-512-512-512z m0 85.33504c235.648 0 426.66496 191.01696 426.66496 426.66496S747.648 810.66496 512 810.66496 85.33504 619.64288 85.33504 384c0-235.648 191.01696-426.66496 426.66496-426.66496z m0 106.66496a42.6752 42.6752 0 0 0-0.06144 85.33504H512a42.66496 42.66496 0 0 0 42.63424-42.7008A42.65984 42.65984 0 0 0 512 64z"  horiz-adv-x="1024" />

    
    <glyph glyph-name="information" unicode="&#58906;" d="M512-128C229.248-128 0 101.248 0 384S229.248 896 512 896s512-229.248 512-512-229.248-512-512-512z m0 85.33504c235.648 0 426.66496 191.01696 426.66496 426.66496S747.648 810.66496 512 810.66496 85.33504 619.64288 85.33504 384c0-235.648 191.01696-426.66496 426.66496-426.66496z m-42.66496 469.33504a42.67008 42.67008 0 0 0 85.33504 0V128c0-23.56736-19.10272-42.66496-42.67008-42.66496s-42.66496 19.0976-42.66496 42.66496V426.67008zM507.72992 563.2C474.74176 563.2 448 589.94176 448 622.93504s26.74176 59.73504 59.72992 59.73504c32.98816 0 59.74016-26.74688 59.74016-59.73504S540.71808 563.2 507.72992 563.2z"  horiz-adv-x="1024" />

    
    <glyph glyph-name="initscreen" unicode="&#58907;" d="M392.9728 880.14848c-27.16672 0-49.4848-21.99552-49.4848-49.16736v-213.1456L84.42112 880.47104c-19.09248 19.4048-50.7904 19.4048-69.86752 0-19.40992-19.08224-19.40992-50.4576 0-69.86752l256.1536-259.39968H63.72096c-27.16672 0-49.16224-22.30784-49.16224-49.47456 0-27.17696 21.99552-49.49504 49.16224-49.49504H442.4576V830.98624c-0.00512 27.16672-22.30784 49.16224-49.4848 49.16224zM922.432 452.23936h37.84192c27.17184 0 49.4848 22.31808 49.4848 49.49504 0 27.16672-22.31296 49.47456-49.4848 49.47456h-206.99648l256.48128 259.39968c19.09248 19.4048 19.09248 50.78016 0 69.86752-19.07712 19.4048-50.78016 19.4048-69.86752 0l-259.38944-262.6304V830.98624c0 27.17184-22.31296 49.16736-49.4848 49.16736-27.1616 0-49.4848-21.99552-49.4848-49.16736v-378.74688h340.89984zM101.88544 315.76576h-38.16448c-27.16672 0-49.16224-22.32832-49.16224-49.49504 0-27.17184 21.99552-49.49504 49.16224-49.49504h206.99648l-256.1536-259.3792c-19.40992-19.41504-19.40992-50.7904 0-69.8624 19.07712-19.41504 50.77504-19.41504 69.86752 0l259.06688 262.29248v-212.82304c0-27.1616 22.31808-49.15712 49.4848-49.15712 27.17696 0 49.47968 21.99552 49.47968 49.15712v378.76224H101.88544zM753.27744 216.77568H960.27392c27.17184 0 49.4848 22.3232 49.4848 49.49504 0 27.16672-22.31296 49.49504-49.4848 49.49504h-378.74176v-378.76224c0-27.1616 22.3232-49.15712 49.4848-49.15712 27.17184 0 49.4848 21.99552 49.4848 49.15712v212.82304l259.38944-262.29248c19.08736-19.41504 50.7904-19.41504 69.86752 0 19.09248 19.072 19.09248 50.44736 0 69.8624l-256.48128 259.3792z"  horiz-adv-x="1024" />

    
    <glyph glyph-name="fullscreen" unicode="&#58908;" d="M172.06355 796.846413h207.379314c27.216423 0 49.579353 22.352691 49.579353 49.579354C429.017098 873.64219 406.659287 896 379.442864 896H0.005173V516.55207c0-27.211303 22.347571-49.579353 49.569114-49.579353s49.589593 22.36293 49.589592 49.579353V729.772982l259.544126-262.795146a49.676628 49.676628 0 0 1 70.314212 0c19.122148 19.117029 19.122148 50.557219 0 69.991671l-256.958667 259.876906zM755.639773 896h-108.870812c-27.206184 0-49.579353-22.35781-49.579353-49.574233 0-27.221543 22.36805-49.579353 49.579353-49.579354h207.056772l-256.636125-259.876906c-19.122148-19.434451-19.439571-50.874642 0-69.991671 19.122148-19.439571 50.879762-19.439571 69.991671 0l259.882026 262.795146v-213.220912c0-27.211303 22.35781-49.579353 49.569114-49.579353 27.226663 0 49.256811 22.36293 49.256811 49.579353V896h-270.249457zM358.702885 301.073361l-259.544125-262.784907V251.494008c0 27.226663-22.36293 49.579353-49.589593 49.579353-27.216423 0-49.569114-22.347571-49.569113-49.579353V-127.943683H379.442864c27.216423 0 49.579353 22.35781 49.579353 49.579353 0 27.211303-22.36293 49.579353-49.579353 49.579353H172.06355l256.953548 259.876907c19.122148 19.439571 19.122148 50.874642 0 69.986551a49.671508 49.671508 0 0 1-70.314213-0.00512zM976.627299 301.073361c-27.206184 0-49.569114-22.347571-49.569114-49.579353V38.288454l-259.882026 262.784907c-19.111909 19.444691-50.869522 19.444691-69.991671 0-19.439571-19.111909-19.122148-50.54698 0-69.986551l256.636125-259.876907h-207.056772c-27.206184 0-49.579353-22.36293-49.579353-49.579353 0-27.216423 22.36805-49.579353 49.579353-49.579353h379.115149v379.437691c0.00512 27.236902-22.019909 49.584473-49.251691 49.584473z"  horiz-adv-x="1025" />

    
    <glyph glyph-name="refresh" unicode="&#58909;" d="M967.231591 144.916976h-117.117129a411.654076 411.654076 0 0 0-335.608243-173.00069c-227.794811 0-412.257615 184.473033-412.257615 411.914928 0 227.784582 184.457689 412.24227 412.257615 412.24227 96.704235 0 189.833272-34.018081 264.334455-95.988172l48.354675-40.830904-122.502942-105.302099 316.985505-76.654486-27.578634 324.857077-92.765891-79.513621-35.10752 33.317364C770.953758 846.218315 645.954827 896.005115 514.506219 896.005115 231.554139 896.005115 2.327203 666.762834 2.327203 383.826099c0-282.594048 229.226936-511.836329 512.179016-511.836328 191.981459 0.005115 365.32995 107.08714 452.725372 272.927205z"  horiz-adv-x="1024" />

    
    <glyph glyph-name="msg-error" unicode="&#58910;" d="M512-128c-282.76736 0-512 229.23264-512 512s229.23264 512 512 512 512-229.23264 512-512-229.2224-512-512-512zM585.14432 603.42272a73.14432 73.14432 0 0 1-146.28864 0V384a73.1136 73.1136 0 0 1 36.48512-63.55968 73.08288 73.08288 0 0 1 73.29792 0 73.08288 73.08288 0 0 1 36.48512 63.55968V603.42272zM512 237.7216a73.17504 73.17504 0 0 1-67.584-45.1584 73.14432 73.14432 0 1 1 67.584 45.1584z"  horiz-adv-x="1024" />

    
    <glyph glyph-name="minus" unicode="&#58911;" d="M814.5408 896h-605.0816c-102.81984 0-186.18368-83.54816-186.18368-186.64448v-650.7008c0-102.81984 83.36384-186.65472 186.18368-186.65472h605.0816c102.83008 0 186.19392 83.54816 186.19392 186.65472v650.7008c0 102.8608-83.36384 186.64448-186.19392 186.64448zM768 337.4592h-512V384h512v-46.5408z"  horiz-adv-x="1024" />

    
    <glyph glyph-name="msg-success" unicode="&#58912;" d="M512-128c-282.76736 0-512 229.25312-512 512 0 282.83904 229.23264 512 512 512 282.74688 0 512-229.16096 512-512 0-282.74688-229.25312-512-512-512zM678.5024 576.31744L416.02048 313.74336 281.37472 448.2048l-89.64096-89.61024 225.66912-225.7408L768.28672 486.6048 678.5024 576.31744z"  horiz-adv-x="1024" />

    
    <glyph glyph-name="edit" unicode="&#58913;" d="M1020.805248 510.909484a28.722051 28.722051 0 0 1-57.065238 0h-0.194552v-498.453022c0-45.76073-37.220911-82.981641-82.971401-82.981641h-737.148114c-45.75049 0-82.981641 37.220911-82.981641 82.981641v743.138274c0 45.75049 37.231151 82.971401 82.981641 82.971401l494.879405 0.040959a28.701572 28.701572 0 0 1 27.943842 28.670853 28.711812 28.711812 0 0 1-27.943842 28.681093v0.040958h-494.879405c-77.431783 0-140.415503-62.983721-140.415503-140.405264v-743.138274c0-77.431783 62.983721-140.415503 140.415503-140.415504h737.148114c77.431783 0 140.415503 62.983721 140.415503 140.415504V510.909484h-0.184312z m-739.667054-300.798208l-0.133114-0.532459c-2.344866-9.973361-4.382545-28.629895 8.48862-41.490821 7.966401-7.976641 18.175273-10.23959 27.155394-10.23959 5.478181 0 10.49558 0.839646 14.284229 1.730491l156.870525 41.429383 499.978721 499.968481a91.941282 91.941282 0 0 1 27.104196 65.430983 91.951522 91.951522 0 0 1-27.104196 65.441222l-34.599576 34.599576c-36.084317 36.074077-94.798128 36.084317-130.882445 0l-500.019679-500.029919-41.142675-156.307347z m87.282269 109.123315l72.240311-72.230071-97.142995-24.923163 24.902684 97.153234z m34.579097 46.661813l390.732531 390.74277 84.261589-84.24111-390.75301-390.74277-84.24111 84.24111z m509.562977 459.941922l34.609816-34.599576a35.132035 35.132035 0 0 0 0-49.641534l-28.588936-28.578697-84.241111 84.25135 28.578697 28.578697a35.152514 35.152514 0 0 0 49.641534-0.01024z"  horiz-adv-x="1024" />

    
    <glyph glyph-name="plus" unicode="&#58914;" d="M488.73472 384H256v-46.5408h232.73472v-232.74496h46.55104V337.4592H768V384H535.28576v232.73472h-46.55104V384z m-465.4592 325.376c0 103.0656 83.33312 186.624 186.15296 186.624H814.592c102.79936 0 186.15296-83.80416 186.15296-186.624v-650.752c0-103.05536-83.34336-186.624-186.15296-186.624h-605.16352c-102.8096 0-186.15296 83.80416-186.15296 186.624v650.752z"  horiz-adv-x="1024" />

    
    <glyph glyph-name="cardboard-weight" unicode="&#58915;" d="M918.106509 215.367912h53.751118c0 158.180864-123.554698 286.415551-275.963076 286.41555s-275.974326-128.234687-275.974326-286.41555h52.99987c0 127.583439 99.659757 231.014436 222.593207 231.014436 122.93345-0.00125 222.593207-103.430997 222.593207-231.014436zM697.274548 138.0831c-2.681243 0.399999-5.401237 0.679998-8.20248 0.679999-31.356173 0-56.781111-26.384936-56.781112-58.932356 0-21.053699 10.821224-40.517401 28.394931-51.039876 17.563707-10.521224 39.218654-10.521224 56.782361 0 17.573707 10.522474 28.394931 29.986177 28.394931 51.039876a60.662352 60.662352 0 0 1-3.99999 21.614947l83.496046 209.789488-128.084687-173.152078zM1003.71255-51.283937H327.74295V368.676287c2.199995 36.547411 21.563697 55.901114 25.144938 61.892349 53.829869 66.883587 113.630973 156.450868 109.750983 154.900872 27.654932 34.496166 48.95988 44.97739 89.667281 49.458629h338.744173V686.138012H521.579977c-40.707401-4.481239-62.011099-14.962463-89.667281-49.458629 3.879991 1.549996-76.404813-108.500985-130.234683-175.384572-3.579991-5.991235-22.942444-25.344938-25.143688-61.892349v-450.686399h-40.9674V440.369862c2.201245 36.546161 21.563697 55.901114 25.144938 61.892349 53.828619 66.883587 134.114673 176.934568 130.234683 175.384572 27.656182 34.497416 48.95988 44.97739 89.667281 49.458629h410.438998V778.315287H449.887652c-40.707401-4.479989-62.011099-14.962463-89.666031-49.458629 3.879991 1.549996-96.889763-128.984685-150.719632-195.867022-3.579991-5.991235-22.943694-25.344938-25.143689-61.892349v-522.379974H143.38715v563.348624c2.199995 36.546161 21.563697 55.901114 25.143689 61.892349 53.829869 66.882337 154.600873 197.418268 150.719632 195.867022 27.654932 34.497416 48.95863 44.97864 89.666031 49.458629h482.132573V870.493812H378.190327c-40.707401-4.481239-62.011099-14.963713-89.666031-49.459879 3.879991 1.549996-117.372213-149.468385-171.203332-216.351972-3.579991-5.989985-22.943694-25.343688-25.143689-61.892349v-594.073549H20.4837C9.181228-51.283937 0-60.465165 0-71.767637v-10.241225c0-11.322472 9.182478-20.48495 20.48495-20.48495h983.22885c11.322472 0 20.48495 9.162478 20.48495 20.48495v10.241225c-0.00125 11.302472-9.163728 20.4837-20.4862 20.4837z"  horiz-adv-x="1024" />

    
    <glyph glyph-name="print-merge-weight" unicode="&#58916;" d="M955.70934 706.482702h-121.367851V804.841647c0 44.84937-22.660247 91.158353-67.239689 91.158353H282.166506c-44.579441 0-93.738919-46.31898-93.738919-91.158353v-98.358945H93.568964C49.019515 706.482702 0 659.982519 0 615.143147V317.057108c0-44.840622 49.019515-70.780001 93.568964-70.780001h94.818634v-303.857011c0-44.839372 49.179473-70.418847 93.758913-70.418846h484.955289c44.579441 0 67.248436 25.579474 67.248437 70.418846V246.297101h121.357853c44.579441 0 68.219429 25.950626 68.219429 70.788749V615.143147c0.00125 44.839372-23.638738 91.339555-68.218179 91.339555zM242.247081 804.841647c0 14.94979 25.099601 38.179886 39.919425 38.179887H767.121795c14.859814 0 13.418945-23.230097 13.418946-38.179887v-98.358945H242.247081V804.841647z m538.274915-852.051798c0-14.94979-11.680656-27.820131-26.53922-27.82013H269.007492c-14.859814 0-26.760411 12.870341-26.760411 27.82013V354.515935c0 14.978532 11.899348 27.119066 26.760411 27.119066h484.975284c14.859814 0 26.53922-12.140534 26.53922-27.119066v-401.726086zM955.70934 300.43651h-121.367851v43.739664c0 44.839372-22.660247 91.599486-67.239689 91.599486H282.166506c-44.579441 0-93.738919-46.760114-93.738919-91.599486v-43.739664H93.568964c-14.839819 0-39.729476 1.69955-39.729476 16.64934V615.143147c0 14.939793 24.889657 37.200146 39.729476 37.200146H955.70934c14.861063 0 13.230245-22.260353 13.230245-37.200146v-298.057297c0-14.94979 1.669558-16.64934-13.230245-16.64934zM866.080582 624.963046c-21.900449 0-39.650747-17.860269-39.650747-39.900681 0-22.019167 17.749048-39.869439 39.650747-39.869439 21.899199 0 39.658245 17.850272 39.658245 39.869439 0.00125 22.040412-17.757796 39.900681-39.658245 39.900681zM506.514578 312.317113c-104.41984 0-189.067417-87.379354-189.067417-195.158304h36.309132c0 86.948218 68.279413 157.408304 152.498354 157.408304 84.208944 0 152.47836-70.460086 152.47836-157.408304h36.838991c0 107.77895-84.658825 195.158304-189.05742 195.158304zM507.37435 64.37904c-1.820768 0.279926-3.640286 0.579846-5.531035 0.579847-21.489308 0-38.909693-17.980237-38.909693-40.160612 0-14.339951 7.420534-27.598939 19.459846-34.76954 12.040561-7.169351 26.859135-7.169351 38.899695 0 12.040561 7.170601 19.448598 20.430838 19.448599 34.76954 0 5.199873-1.029727 10.121069-2.769267 14.659867l57.218593 143.028362-87.816738-118.107464zM480.745154 615.343094h-53.609549c-11.299507 0-20.479575-9.160074-20.479575-20.480825v-108.077621c0-11.320751 9.180068-20.480825 20.479575-20.480825h53.609549c11.309504 0 20.479575 9.160074 20.479575 20.480825v108.077621c-0.00125 11.320751-9.170071 20.480825-20.479575 20.480825zM594.233842 615.343094h-53.619547c-11.299507 0-20.480825-9.160074-20.480824-20.480825v-108.077621c0-11.320751 9.181318-20.480825 20.480824-20.480825h53.619547c11.299507 0 20.479575 9.160074 20.479575 20.480825v108.077621c0 11.320751-9.180068 20.480825-20.479575 20.480825zM318.446896 554.644173h-44.189545v-29.159776h44.189545v-37.540056l69.249156 52.119944-69.249156 52.118694zM702.922551 592.182979l-69.249156-52.118694 69.249156-52.119944v37.540056h44.189545V554.644173h-44.189545z"  horiz-adv-x="1024" />

    
    <glyph glyph-name="print-trans-list" unicode="&#58917;" d="M626.598646 115.580544H320.520315c-7.100402 0-11.820258-2.279327-16.560108-6.840479-9.459706-9.099812-9.459706-22.759527 0-31.869336l109.858797-105.730016c9.469703-9.079818 23.66051-9.079818 33.120216 0 9.469703 9.099812 9.469703 22.760776 0 31.870585l-69.640678 67.010204h249.300104c14.199555 0 23.66051 9.099812 23.660511 22.759527 0 13.660964-9.500943 22.799515-23.660511 22.799515zM610.179747 336.400311c-9.459706 9.081067-23.66051 9.081067-33.120216 0-9.459706-9.099812-9.459706-22.759527 0-31.880582l69.619433-66.998958H397.398854c-14.180811 0-23.639267-9.109809-23.639266-22.770773 0-13.659715 9.4797-22.789518 23.639266-22.789518h306.079581c7.100402 0 11.830255 2.280576 16.560108 6.830483 9.440961 9.109809 9.440961 22.769524 0 31.870585l-109.858796 105.738763zM955.68768 706.489733h-121.369146V804.83943c0 44.849251-22.660806 91.159321-67.240137 91.15932h-484.91925c-44.58058 0-93.739808-46.320067-93.739808-91.15932v-98.349697H93.559861c-44.54934 0-93.559861-46.51126-93.559861-91.350514v-298.079444c0-44.840504 49.010522-70.780341 93.559861-70.780341h94.829487v-303.858987c0-44.840504 49.170475-70.420447 93.749805-70.420447h484.939244c44.579331 0 67.248884 25.579943 67.248884 70.420447V246.301927h121.35915c44.570583 0 68.20985 25.949834 68.20985 70.789089v298.049453c0.00125 44.839254-23.638017 91.349264-68.208601 91.349264zM242.23969 804.83943c0 14.949334 25.100085 38.179971 39.919457 38.179971H767.098391c14.86061 0 13.419786-23.230637 13.419786-38.179971v-98.349697h-538.278487V804.83943z m538.258493-852.047047c0-14.950583-11.681549-27.820532-26.53966-27.820531H268.999285c-14.86061 0-26.759595 12.869948-26.759595 27.820531V354.519959c0 14.979325 11.898985 27.119489 26.759595 27.119488h484.959238c14.85936 0 26.53966-12.140164 26.53966-27.119488v-401.727576z m175.189497 347.648551h-121.369146v43.739579c0 44.840504-22.660806 91.60044-67.240137 91.60044h-484.91925c-44.58058 0-93.739808-46.759937-93.739808-91.60044v-43.739579H93.559861c-14.830619 0-39.719516 1.699498-39.719516 16.650082v298.049453c0 14.939337 24.888898 37.200261 39.719516 37.20026h862.127819c14.86061 0 13.219845-22.259674 13.219845-37.20026v-298.049453c0-14.950583 1.670756-16.650081-13.219845-16.650082zM866.057908 624.960068c-21.899781 0-39.649537-17.860974-39.649537-39.890716s17.749757-39.879469 39.649537-39.879469 39.659534 17.849727 39.659534 39.879469-17.758504 39.890716-39.659534 39.890716z"  horiz-adv-x="1024" />

    
    <glyph glyph-name="quality-check" unicode="&#58918;" d="M575.720058 7.117216c25.905683 9.40048 122.896092 52.280016 122.896092 166.241778v62.485323c0 7.477143-4.410302 14.234441-11.16885 17.177559l-110.737455 48.113411a18.031125 18.031125 0 0 1-7.289683 1.523423 18.083614 18.083614 0 0 1-7.279686-1.523423l-110.738705-48.113411c-6.784792-2.943118-11.177598-9.700416-11.177598-17.177559v-62.485323c0-113.961762 97.000407-156.841298 122.90734-166.241778a18.202339 18.202339 0 0 1 12.588545 0z m-97.897714 166.27802l0.064986 62.671533 91.532832 28.908788 91.607815-29.102496v-62.477825c-2.057058-86.32645-59.447226-114.037995-91.607815-129.663388-27.345374 14.254437-91.597817 38.561714-91.597818 129.663388zM619.773092 204.498553l-64.653608-64.971039-31.139558 31.289526-16.560192-16.617679 31.158305-31.307023h-0.008748l16.580187-16.653921 81.195053 81.606214zM966.57732 401.554959c0 5.336353-1.607155 10.271543-4.316572 14.429399-17.140067 55.056919-84.730543 250.346206-181.028601 250.346206H378.083776l81.280034 28.710081c7.513386 7.195954 17.514986 9.570443 28.710081 9.570443h9.570444c22.748862 7.822069 28.710081 20.561832 28.710081 20.561832s-36.43967 40.635018-62.681531 31.606958l-128.719841-33.027903-47.850968 105.27113c-5.298861 11.607506-5.887485 11.083868-9.570443 19.139637-3.289293 18.392298-23.066294 35.494873-41.32737 43.289448-29.102496 12.429829-63.008961-1.532171-75.701233-31.158305-12.709769-29.636132 0.578626-63.737554 29.682372-76.168633 17.532483-7.49464 32.411785-6.990998 49.065706-2.953115l38.280525-86.130243-114.739095-32.308057c-2.345746-0.803577-4.476538-2.083302-6.513601-3.560485-8.103259-2.934369-11.21509 0.056238-18.318563 3.101833-29.121242 12.429829-63.008961-1.523423-75.719979-31.158304-12.709769-29.64488 0.579875-63.747552 29.701117-76.186129 29.102496-12.411083 62.981467 1.542169 75.701234 31.187048 2.37324 5.561305 3.570483 1.729628 4.18785 7.429654 2.028314 0.701099 4.036633 1.392201 6.13993 2.112046l120.046705 42.39339c-50.036748-54.68325-100.672118-173.662683-118.784476-218.710503-2.130792-2.355744-3.869169-5.028919-5.065161-8.038273l-0.054989-0.167464c-1.158501-2.971861-1.850852-6.18742-1.850852-9.580441v-172.103019c0-14.616859 11.849954-26.476811 26.476811-26.47681 14.625607 0 26.476811 11.858702 26.47681 26.47681v119.150647c0 14.625607 11.849954 26.476811 26.485559 26.476811h635.447205c14.625607 0 26.47806-11.849954 26.47806-26.476811V-48.565819c0-14.61436-11.851203-26.468063-26.47806-26.468062H251.700933c-14.635605 0-26.485559 11.852453-26.485559 26.468062V110.303793c0 14.625607-11.849954 26.476811-26.47681 26.476811s-26.476811-11.849954-26.476811-26.476811V-75.035131c0-1.830857 0.354924-3.560485 0.542384-5.335104 2.691922-26.701762 24.99088-47.618518 52.411237-47.618517H913.626198c29.252464 0 52.952372 23.701157 52.952372 52.952371V375.078148c0 4.486536-0.728593 8.774365-1.794614 12.953467 1.159751 3.411767 1.793365 7.803323 1.793364 13.523344zM143.036783 592.134007c-9.524203-15.205483-23.701157-16.326492-44.196753-11.522524-14.729335 12.692273-16.355236 27.962741-11.411298 43.849328 12.532307 15.289215 23.13128 20.89676 43.626875 12.149889 5.447579-2.336998 10.065337-5.783757 13.803284-9.924117 1.757122-3.869169 3.159321-8.673136 3.233056-12.542305-0.428658-9.682919 0.439905-13.197164-5.055164-22.010271z m93.26121 221.233712s-13.21466-10.027845-39.662727-4.654c-13.289644 9.766651-20.66431 23.803635-11.513776 45.149048 14.878053 21.326667 34.878755 18.346058 44.645406 12.989709 7.504637-2.262014 12.832243-10.783933 13.074691-16.33524 3.064342-11.944933 3.018101-26.411825-6.543594-37.149517z m18.168596-24.859659a22.982561 22.982561 0 0 0-1.962079 7.439652 59.117297 59.117297 0 0 1 13.383375 19.335845c0.747339 1.76712 1.131007 3.597977 1.700884 5.401339 2.057058-4.551522 7.925797-17.486243 14.916795-32.924175l36.57964-80.757647-22.448927-7.729589-42.169688 89.234575z m-82.962173-168.551281c-0.963543 5.148894-2.7944 10.019097-5.037668 14.690593 4.580266 3.831677 9.776649 7.262189 15.522915 9.21552l267.803704 89.458277c20.018198 6.803538 34.989981-7.963289 34.989981-7.963289s-16.232762-5.551307-36.242212-12.354845l-229.485688-78.261933c-11.018882-3.765441-31.337016-9.944113-47.551032-14.784323z m190.140392-6.93476l20.645564-45.570208c8.70063-19.195875 28.551365-68.802716 28.551365-68.802716s-28.89754 14.503134-37.608169 33.700259l-31.588212 70.952254c6.812286 5.233875 13.513346 8.683134 19.999452 9.720411zM236.784138 428.03177c17.663704 41.924741 53.102339 119.598051 88.615959 159.775667l38.263028-84.168164c11.503778-25.17709 72.45693-19.158383 72.45693-19.158383s-3.541739 22.672628-15.036769 47.869714l-31.55197 81.027588h372.729908c70.606078 0 122.297471-127.14018 142.279427-185.346422H236.784138z"  horiz-adv-x="1024" />

    


  </font>
</defs>
</svg>
